<?xml version="1.0" encoding="UTF-8" standalone="no"?>
<!DOCTYPE svg PUBLIC "-//W3C//DTD SVG 1.1//EN"
 "http://www.w3.org/Graphics/SVG/1.1/DTD/svg11.dtd">
<!-- Generated by graphviz version 2.38.0 (20140413.2041)
 -->
<!-- Title: Network Pages: 1 -->
<svg width="685pt" height="63pt"
 viewBox="0.00 0.00 685.00 63.00" xmlns="http://www.w3.org/2000/svg" xmlns:xlink="http://www.w3.org/1999/xlink">
<g id="graph0" class="graph" transform="scale(1 1) rotate(0) translate(4 59)">
<title>Network</title>
<!-- lasagne.layers.dense.DenseLayer object at 0x7fca36783a20 -->
<g id="node1" class="node"><title>lasagne.layers.dense.DenseLayer object at 0x7fca36783a20</title>
<polygon fill="none" stroke="none" points="677,-55 453,-55 453,-3.55271e-15 677,-3.55271e-15 677,-55"/>
<polygon fill="#6ccf8d" stroke="none" points="461,-3.5 461,-50.5 620,-50.5 620,-3.5 461,-3.5"/>
<polygon fill="none" stroke="black" points="461,-3.5 461,-50.5 620,-50.5 620,-3.5 461,-3.5"/>
<text text-anchor="start" x="506" y="-38.3" font-family="Times,serif" font-size="14.00">DenseLayer</text>
<text text-anchor="start" x="494" y="-23.3" font-family="Times,serif" font-size="14.00">num_units: 1000</text>
<text text-anchor="start" x="462" y="-8.3" font-family="Times,serif" font-size="14.00">Output shape: (None, 1000)</text>
<polygon fill="#ffff00" stroke="none" points="620,-3.5 620,-50.5 669,-50.5 669,-3.5 620,-3.5"/>
<polygon fill="none" stroke="black" points="620,-3.5 620,-50.5 669,-50.5 669,-3.5 620,-3.5"/>
<text text-anchor="start" x="621" y="-23.3" font-family="Times,serif" font-size="14.00">sigmoid</text>
</g>
<!-- lasagne.layers.dense.DenseLayer object at 0x7fca36783f60 -->
<g id="node2" class="node"><title>lasagne.layers.dense.DenseLayer object at 0x7fca36783f60</title>
<polygon fill="none" stroke="none" points="417,-55 209,-55 209,-3.55271e-15 417,-3.55271e-15 417,-55"/>
<polygon fill="#6ccf8d" stroke="none" points="217,-3.5 217,-50.5 369,-50.5 369,-3.5 217,-3.5"/>
<polygon fill="none" stroke="black" points="217,-3.5 217,-50.5 369,-50.5 369,-3.5 217,-3.5"/>
<text text-anchor="start" x="258.5" y="-38.3" font-family="Times,serif" font-size="14.00">DenseLayer</text>
<text text-anchor="start" x="250" y="-23.3" font-family="Times,serif" font-size="14.00">num_units: 100</text>
<text text-anchor="start" x="218" y="-8.3" font-family="Times,serif" font-size="14.00">Output shape: (None, 100)</text>
<polygon fill="#ffff00" stroke="none" points="369,-3.5 369,-50.5 409,-50.5 409,-3.5 369,-3.5"/>
<polygon fill="none" stroke="black" points="369,-3.5 369,-50.5 409,-50.5 409,-3.5 369,-3.5"/>
<text text-anchor="start" x="370" y="-23.3" font-family="Times,serif" font-size="14.00">rectify</text>
</g>
<!-- lasagne.layers.dense.DenseLayer object at 0x7fca36783f60&#45;&gt;lasagne.layers.dense.DenseLayer object at 0x7fca36783a20 -->
<g id="edge2" class="edge"><title>lasagne.layers.dense.DenseLayer object at 0x7fca36783f60&#45;&gt;lasagne.layers.dense.DenseLayer object at 0x7fca36783a20</title>
<path fill="none" stroke="black" d="M417.128,-27.5C425.447,-27.5 433.9,-27.5 442.332,-27.5"/>
<polygon fill="black" stroke="black" points="442.597,-31.0001 452.597,-27.5 442.597,-24.0001 442.597,-31.0001"/>
</g>
<!-- lasagne.layers.input.InputLayer object at 0x7fca36783a90 -->
<g id="node3" class="node"><title>lasagne.layers.input.InputLayer object at 0x7fca36783a90</title>
<polygon fill="#a2cece" stroke="black" points="0,-8.5 0,-46.5 173,-46.5 173,-8.5 0,-8.5"/>
<text text-anchor="middle" x="86.5" y="-31.3" font-family="Times,serif" font-size="14.00">InputLayer</text>
<text text-anchor="middle" x="86.5" y="-16.3" font-family="Times,serif" font-size="14.00">Output shape: (None, 1000)</text>
</g>
<!-- lasagne.layers.input.InputLayer object at 0x7fca36783a90&#45;&gt;lasagne.layers.dense.DenseLayer object at 0x7fca36783f60 -->
<g id="edge1" class="edge"><title>lasagne.layers.input.InputLayer object at 0x7fca36783a90&#45;&gt;lasagne.layers.dense.DenseLayer object at 0x7fca36783f60</title>
<path fill="none" stroke="black" d="M173.014,-27.5C181.386,-27.5 189.969,-27.5 198.561,-27.5"/>
<polygon fill="black" stroke="black" points="198.639,-31.0001 208.639,-27.5 198.639,-24.0001 198.639,-31.0001"/>
</g>
</g>
</svg>
