<?xml version="1.0" encoding="UTF-8" standalone="no"?>
<!DOCTYPE svg PUBLIC "-//W3C//DTD SVG 1.1//EN"
 "http://www.w3.org/Graphics/SVG/1.1/DTD/svg11.dtd">
<!-- Generated by graphviz version 2.38.0 (20140413.2041)
 -->
<!-- Title: supervised Pages: 1 -->
<svg width="255pt" height="44pt"
 viewBox="0.00 0.00 255.00 44.00" xmlns="http://www.w3.org/2000/svg" xmlns:xlink="http://www.w3.org/1999/xlink">
<g id="graph0" class="graph" transform="scale(1 1) rotate(0) translate(4 40)">
<title>supervised</title>
<!-- X -->
<g id="node1" class="node"><title>X</title>
<ellipse fill="#aaffff" stroke="black" cx="27" cy="-18" rx="27" ry="18"/>
<text text-anchor="middle" x="27" y="-14.3" font-family="Times,serif" font-size="14.00">X</text>
</g>
<!-- f -->
<g id="node2" class="node"><title>f</title>
<polygon fill="#aaaaff" stroke="black" points="157,-36 90,-36 90,-0 157,-0 157,-36"/>
<text text-anchor="middle" x="123.5" y="-14.3" font-family="Times,serif" font-size="14.00">Function</text>
</g>
<!-- X&#45;&gt;f -->
<g id="edge1" class="edge"><title>X&#45;&gt;f</title>
<path fill="none" stroke="black" d="M54.0727,-18C62.0045,-18 70.9403,-18 79.6727,-18"/>
<polygon fill="black" stroke="black" points="79.7582,-21.5001 89.7582,-18 79.7582,-14.5001 79.7582,-21.5001"/>
</g>
<!-- Y -->
<g id="node3" class="node"><title>Y</title>
<ellipse fill="#aaffaa" stroke="black" cx="220" cy="-18" rx="27" ry="18"/>
<text text-anchor="middle" x="220" y="-14.3" font-family="Times,serif" font-size="14.00">Y</text>
</g>
<!-- f&#45;&gt;Y -->
<g id="edge2" class="edge"><title>f&#45;&gt;Y</title>
<path fill="none" stroke="black" d="M157.022,-18C165.372,-18 174.404,-18 182.923,-18"/>
<polygon fill="black" stroke="black" points="182.978,-21.5001 192.978,-18 182.978,-14.5001 182.978,-21.5001"/>
</g>
</g>
</svg>
