<?xml version="1.0" encoding="UTF-8" standalone="no"?>
<!DOCTYPE svg PUBLIC "-//W3C//DTD SVG 1.1//EN"
 "http://www.w3.org/Graphics/SVG/1.1/DTD/svg11.dtd">
<!-- Generated by graphviz version 2.38.0 (20140413.2041)
 -->
<!-- Title: supervised Pages: 1 -->
<svg width="247pt" height="44pt"
 viewBox="0.00 0.00 247.00 44.00" xmlns="http://www.w3.org/2000/svg" xmlns:xlink="http://www.w3.org/1999/xlink">
<g id="graph0" class="graph" transform="scale(1 1) rotate(0) translate(4 40)">
<title>supervised</title>
<!-- Q -->
<g id="node1" class="node"><title>Q</title>
<ellipse fill="#aaffff" stroke="black" cx="27" cy="-18" rx="27" ry="18"/>
<text text-anchor="middle" x="27" y="-14.3" font-family="Times,serif" font-size="14.00">Q</text>
</g>
<!-- f -->
<g id="node2" class="node"><title>f</title>
<polygon fill="#aaaaff" stroke="black" points="149,-36 90,-36 90,-0 149,-0 149,-36"/>
<text text-anchor="middle" x="119.5" y="-14.3" font-family="Times,serif" font-size="14.00">Student</text>
</g>
<!-- Q&#45;&gt;f -->
<g id="edge1" class="edge"><title>Q&#45;&gt;f</title>
<path fill="none" stroke="black" d="M54.1763,-18C62.1186,-18 71.0204,-18 79.6102,-18"/>
<polygon fill="black" stroke="black" points="79.8478,-21.5001 89.8478,-18 79.8477,-14.5001 79.8478,-21.5001"/>
</g>
<!-- A -->
<g id="node3" class="node"><title>A</title>
<ellipse fill="#aaffaa" stroke="black" cx="212" cy="-18" rx="27" ry="18"/>
<text text-anchor="middle" x="212" y="-14.3" font-family="Times,serif" font-size="14.00">A</text>
</g>
<!-- f&#45;&gt;A -->
<g id="edge2" class="edge"><title>f&#45;&gt;A</title>
<path fill="none" stroke="black" d="M149.135,-18C157.234,-18 166.158,-18 174.648,-18"/>
<polygon fill="black" stroke="black" points="174.702,-21.5001 184.702,-18 174.702,-14.5001 174.702,-21.5001"/>
</g>
</g>
</svg>
